<?xml version="1.0" standalone="no"?>
<!DOCTYPE svg PUBLIC "-//W3C//DTD SVG 20010904//EN"
 "http://www.w3.org/TR/2001/REC-SVG-20010904/DTD/svg10.dtd">
<svg version="1.0" xmlns="http://www.w3.org/2000/svg"
 width="300.000000pt" height="277.000000pt" viewBox="0 0 300.000000 277.000000"
 preserveAspectRatio="xMidYMid meet">
<metadata>
Created by potrace 1.10, written by Peter Selinger 2001-2011
</metadata>
<g transform="translate(0.000000,277.000000) scale(0.100000,-0.100000)"
fill="#000000" stroke="none">
<path d="M819 2166 c25 -26 44 -35 81 -40 27 -4 52 -11 55 -16 4 -6 10 -8 14
-6 4 3 30 -2 57 -10 27 -9 112 -33 188 -55 129 -37 216 -70 141 -54 -16 4 -50
11 -75 15 -25 5 -90 18 -144 30 -60 12 -103 17 -109 11 -8 -8 58 -25 351 -92
85 -19 92 -23 79 -38 -8 -9 -62 -91 -122 -183 l-107 -167 -14 -158 c-7 -87
-15 -168 -17 -180 -4 -23 7 -31 18 -14 3 6 108 85 233 177 125 92 229 169 231
170 6 5 100 358 97 362 -6 5 -167 42 -187 42 -25 0 -24 13 3 54 20 30 30 35
77 41 53 7 55 6 80 -26 14 -18 31 -38 36 -45 7 -9 59 -10 200 -6 105 3 179 8
165 12 -14 4 -92 15 -173 25 l-149 19 -39 46 -39 46 -67 -7 c-38 -5 -75 -8
-84 -8 -9 -1 -35 -30 -58 -65 l-42 -64 -62 17 c-77 22 -467 144 -565 177 -40
13 -75 24 -79 24 -4 0 8 -15 26 -34z m747 -223 c-1 -1 -12 -4 -23 -6 -12 -1
-28 -9 -37 -16 -9 -8 -17 -12 -19 -10 -28 49 -28 49 -3 49 13 0 29 7 37 16 11
14 15 13 30 -8 10 -12 17 -24 15 -25z m68 -52 l73 -16 -40 -140 -39 -140 -180
-133 -181 -134 6 63 c4 34 7 79 7 99 0 30 23 72 126 233 91 142 130 194 141
190 8 -3 47 -13 87 -22z m-364 -567 c11 -12 11 -18 -2 -31 -19 -18 -38 -10
-33 15 2 9 4 20 4 25 2 12 18 8 31 -9z"/>
<path d="M832 2097 c31 -29 139 -131 240 -227 100 -96 178 -168 172 -160 -6 8
-40 51 -75 96 -35 44 -86 114 -114 156 -27 42 -54 73 -58 69 -9 -9 10 -50 28
-63 5 -4 7 -9 5 -12 -3 -2 -46 35 -96 82 -81 77 -129 113 -152 112 -4 -1 18
-24 50 -53z"/>
<path d="M1664 2005 c-7 -18 3 -35 21 -35 15 0 24 19 18 38 -6 17 -32 15 -39
-3z"/>
<path d="M1320 1161 l0 -39 46 -4 c25 -2 47 -1 50 1 2 2 4 22 4 43 l0 38 -50
0 -50 0 0 -39z"/>
<path d="M1126 1096 c-36 -41 -66 -79 -66 -85 0 -6 12 -11 28 -11 l27 0 0 -80
c0 -72 3 -82 25 -104 19 -19 38 -26 83 -30 l57 -5 0 45 c0 37 -3 44 -19 44
-44 0 -51 10 -51 71 l0 59 35 0 c34 0 35 1 35 40 0 40 0 40 -39 40 l-39 0 5
39 c3 21 1 41 -5 45 -5 3 -39 -27 -76 -68z m77 -32 l29 -25 -26 -26 c-44 -44
-34 -123 22 -167 21 -17 22 -20 7 -28 -26 -15 -72 9 -84 44 -6 17 -11 52 -11
78 0 25 -6 55 -14 65 -15 21 -11 39 13 66 22 24 31 23 64 -7z"/>
<path d="M544 1081 c-12 -5 -25 -14 -29 -20 -9 -16 -25 -13 -25 4 0 10 -11 15
-35 15 l-35 0 0 -149 0 -149 47 2 46 1 -2 80 c-3 103 8 135 48 135 37 0 41
-11 41 -125 l0 -93 45 0 45 0 0 119 c0 115 -1 120 -27 149 -30 33 -82 46 -119
31z m83 -36 c36 -25 48 -101 34 -217 -1 -5 -8 -8 -16 -8 -18 0 -18 -3 -20 88
-2 81 -20 112 -69 117 -37 4 -63 -43 -70 -129 -6 -75 -9 -82 -25 -71 -7 4 -11
47 -11 111 l0 104 49 0 c28 0 53 5 56 10 9 15 48 12 72 -5z"/>
<path d="M823 1071 c-62 -29 -85 -71 -81 -149 4 -57 7 -66 41 -99 33 -33 43
-37 99 -41 53 -3 68 0 97 20 50 34 73 83 68 141 -10 112 -122 176 -224 128z
m144 -36 c28 -19 53 -71 53 -112 0 -31 -36 -88 -65 -102 -20 -10 -51 -14 -93
-12 -26 1 -77 47 -90 82 -16 43 -6 89 29 125 17 18 41 35 53 38 34 7 86 -2
113 -19z"/>
<path d="M840 1002 c-12 -10 -25 -35 -29 -58 -10 -52 18 -92 70 -100 82 -14
130 97 66 152 -33 28 -76 31 -107 6z m88 -18 c16 -11 22 -25 22 -53 0 -45 -14
-61 -54 -61 -60 0 -88 68 -46 110 24 24 48 25 78 4z"/>
<path d="M1566 1080 c-58 -18 -106 -86 -106 -147 1 -45 36 -111 72 -133 43
-26 122 -27 162 -1 33 22 66 68 66 94 0 27 -85 24 -100 -3 -15 -28 -75 -28
-90 0 -19 35 -8 83 22 99 25 14 29 14 57 -7 34 -25 111 -31 111 -9 0 21 -38
75 -64 92 -31 21 -91 27 -130 15z m121 -55 c23 -20 25 -24 10 -25 -10 0 -29 7
-42 16 -81 53 -173 -84 -99 -149 39 -34 56 -36 102 -15 52 25 68 15 27 -18
-61 -48 -160 -19 -181 53 -18 65 5 135 50 153 44 18 104 11 133 -15z"/>
<path d="M1895 1079 c-120 -38 -142 -205 -36 -276 44 -30 122 -31 169 -3 67
41 92 131 56 206 -29 60 -120 96 -189 73z m135 -54 c26 -24 43 -80 36 -119
-19 -99 -172 -129 -225 -44 -35 56 -6 163 49 180 41 12 118 3 140 -17z"/>
<path d="M1884 999 c-53 -55 -24 -150 49 -157 47 -4 75 12 93 54 26 62 -12
123 -79 129 -28 3 -41 -3 -63 -26z m105 -25 c25 -32 26 -52 5 -82 -32 -46
-114 -17 -114 41 0 24 44 67 69 67 11 0 29 -12 40 -26z"/>
<path d="M2262 1070 c-28 -17 -33 -18 -38 -5 -4 9 -19 15 -40 15 l-34 0 0
-149 0 -148 48 1 47 1 -3 72 c-5 87 4 130 28 143 14 7 23 6 35 -6 13 -13 16
-35 14 -113 l-2 -96 47 -2 46 -2 0 97 c0 53 4 103 9 110 4 8 19 12 32 10 23
-3 24 -6 27 -109 l3 -107 50 0 51 0 -3 118 c-4 134 -19 167 -78 184 -35 10
-101 -13 -101 -35 0 -6 -14 1 -31 15 -37 31 -63 33 -107 6z m96 -29 c9 -5 25
-12 35 -15 17 -5 17 -8 3 -28 -10 -15 -16 -44 -16 -84 0 -34 -3 -69 -6 -78
-13 -34 -24 -2 -24 69 0 69 -2 77 -31 110 l-31 35 26 0 c14 0 34 -4 44 -9z
m169 -21 c6 -14 13 -61 15 -105 2 -67 0 -80 -13 -83 -14 -2 -16 10 -18 78 -2
77 -4 83 -34 111 l-32 29 35 -2 c26 -2 38 -9 47 -28z m-300 14 l22 -6 -20 -37
c-14 -26 -19 -52 -18 -92 3 -61 -7 -91 -22 -68 -10 16 -12 169 -3 193 7 18 9
18 41 10z"/>
<path d="M1320 932 l0 -148 50 -1 50 -1 0 149 0 149 -50 0 -50 0 0 -148z m68
-6 c-2 -82 -6 -101 -18 -101 -12 0 -16 19 -18 99 -3 115 1 134 23 116 13 -10
15 -33 13 -114z"/>
<path d="M1670 671 c0 -38 4 -61 11 -61 7 0 9 10 7 25 -5 22 -2 25 25 25 26 0
29 -3 25 -25 -3 -15 -1 -25 7 -25 12 0 15 103 2 116 -4 4 -7 -4 -7 -18 0 -13
-3 -27 -6 -30 -11 -12 -44 5 -44 23 0 10 -4 21 -10 24 -6 4 -10 -17 -10 -54z"/>
<path d="M1930 670 c0 -33 4 -60 10 -60 6 0 10 27 10 60 0 33 -4 60 -10 60 -6
0 -10 -27 -10 -60z"/>
<path d="M2060 712 c0 -13 -8 -17 -32 -17 -35 0 -45 -17 -34 -61 6 -21 12 -24
46 -22 l40 1 0 59 c0 32 -4 58 -10 58 -5 0 -10 -8 -10 -18z m-4 -47 c8 -20
-13 -45 -32 -38 -8 3 -14 16 -14 29 0 17 6 24 20 24 11 0 23 -7 26 -15z"/>
<path d="M1807 694 c-9 -9 -9 -47 -1 -68 7 -17 41 -21 62 -7 8 5 12 22 10 42
-3 30 -7 34 -33 37 -17 2 -34 0 -38 -4z m57 -23 c10 -16 -5 -41 -24 -41 -20 0
-30 17 -22 38 5 14 38 16 46 3z"/>
<path d="M2120 655 c0 -25 5 -45 10 -45 6 0 10 20 10 45 0 25 -4 45 -10 45 -5
0 -10 -20 -10 -45z"/>
<path d="M2190 655 c0 -25 5 -45 10 -45 6 0 10 15 10 33 0 38 6 48 26 40 8 -3
14 -19 14 -39 0 -19 5 -34 10 -34 11 0 14 49 4 74 -4 10 -18 16 -40 16 -34 0
-34 -1 -34 -45z"/>
<path d="M2322 688 c-30 -30 -2 -85 38 -75 13 3 20 0 20 -9 0 -19 -28 -30 -43
-15 -16 16 -27 14 -21 -4 9 -24 43 -29 65 -9 14 13 19 30 19 69 l0 52 -33 1
c-19 1 -39 -4 -45 -10z m58 -32 c0 -18 -21 -35 -36 -29 -17 6 -18 50 -1 56 15
5 37 -11 37 -27z"/>
<path d="M1470 670 c0 -6 37 -10 90 -10 53 0 90 4 90 10 0 6 -37 10 -90 10
-53 0 -90 -4 -90 -10z"/>
<path d="M2415 670 c-4 -6 27 -10 85 -10 58 0 89 4 85 10 -3 6 -42 10 -85 10
-43 0 -82 -4 -85 -10z"/>
</g>
</svg>
